<svg width="375" height="161" viewBox="0 0 375 161" fill="none" xmlns="http://www.w3.org/2000/svg">
<rect width="375" height="161" fill="#1635F4"/>
<g clip-path="url(#clip0_58_364)">
<path d="M205.49 55V49.6298H195.775V55H205.49Z" fill="white"/>
<path d="M160.807 32H155.5V55H160.807V32Z" fill="white"/>
<path d="M170.731 32H165.424V50.1172H170.731V32Z" fill="white"/>
<path d="M180.655 32H175.348V55H180.655V32Z" fill="white"/>
<path d="M165.644 55V49.6298H155.929V55H165.644Z" fill="white"/>
<path d="M180.28 55V49.6298H170.566V55H180.28Z" fill="white"/>
<path d="M190.653 32H185.347V50.1172H190.653V32Z" fill="white"/>
<path d="M200.578 32H195.271V55H200.578V32Z" fill="white"/>
<path d="M185.567 55V49.6298H175.423V55H185.567Z" fill="white"/>
<path d="M200.203 55.0009V49.6307H190.488V55.0009H200.203Z" fill="white"/>
<path d="M210.576 32H205.27V50.1172H210.576V32Z" fill="white"/>
<path d="M220.5 32H215.193V55H220.5V32Z" fill="white"/>
<path d="M220.126 55.0009V49.6307H210.411V55.0009H220.126Z" fill="white"/>
</g>
<path d="M153.21 73H154.118L155.671 67.4043H155.729L157.272 73H158.181L160.114 65.9297H159.226L157.751 71.6523H157.692L156.188 65.9297H155.202L153.708 71.6523H153.64L152.165 65.9297H151.276L153.21 73ZM162.604 73.1074C164.045 73.1123 165.012 72.0186 165.007 70.373C165.012 68.7178 164.045 67.6289 162.604 67.6289C161.159 67.6289 160.183 68.7178 160.183 70.373C160.183 72.0186 161.159 73.1123 162.604 73.1074ZM161.022 70.373C161.027 69.3184 161.525 68.3711 162.604 68.3711C163.674 68.3711 164.167 69.3184 164.167 70.373C164.167 71.4326 163.674 72.3652 162.604 72.3652C161.525 72.3652 161.027 71.4326 161.022 70.373ZM166.11 73H166.95V69.6602C166.95 68.9473 167.517 68.4199 168.278 68.4199C168.498 68.4199 168.723 68.4639 168.786 68.4785V67.6289C168.688 67.6191 168.474 67.6143 168.347 67.6094C167.722 67.6143 167.17 67.9707 166.979 68.5078H166.921V67.6973H166.11V73ZM170.446 65.9297H169.606V73H170.446V65.9297ZM173.786 73.1074C174.797 73.1123 175.144 72.4824 175.329 72.1895H175.417V73H176.237V65.9297H175.388V68.5371H175.329C175.148 68.2539 174.826 67.6289 173.796 67.6289C172.463 67.6289 171.53 68.6836 171.53 70.3633C171.53 72.0479 172.463 73.1123 173.786 73.1074ZM172.38 70.3438C172.38 69.2354 172.883 68.3809 173.903 68.3809C174.89 68.3809 175.412 69.167 175.417 70.3438C175.412 71.5352 174.875 72.3555 173.903 72.3555C172.897 72.3555 172.38 71.4717 172.38 70.3438ZM181.618 73H182.526L184.079 67.4043H184.138L185.681 73H186.589L188.522 65.9297H187.634L186.159 71.6523H186.101L184.597 65.9297H183.61L182.116 71.6523H182.048L180.573 65.9297H179.685L181.618 73ZM189.353 73H190.192V67.6973H189.353V73ZM189.187 66.2617C189.182 66.5693 189.45 66.8184 189.772 66.8184C190.095 66.8184 190.363 66.5693 190.368 66.2617C190.363 65.9492 190.095 65.7002 189.772 65.7051C189.45 65.7002 189.182 65.9492 189.187 66.2617ZM193.532 73.1074C194.543 73.1123 194.89 72.4824 195.075 72.1895H195.163V73H195.983V65.9297H195.134V68.5371H195.075C194.895 68.2539 194.572 67.6289 193.542 67.6289C192.209 67.6289 191.276 68.6836 191.276 70.3633C191.276 72.0479 192.209 73.1123 193.532 73.1074ZM192.126 70.3438C192.126 69.2354 192.629 68.3809 193.649 68.3809C194.636 68.3809 195.158 69.167 195.163 70.3438C195.158 71.5352 194.621 72.3555 193.649 72.3555C192.644 72.3555 192.126 71.4717 192.126 70.3438ZM199.665 73.1074C200.759 73.1123 201.545 72.5654 201.794 71.7598H200.896C200.7 72.0869 200.3 72.3652 199.665 72.3652C198.723 72.3652 198.068 71.75 198.024 70.627H201.872V70.2754C201.877 68.3125 200.7 67.6289 199.587 67.6289C198.146 67.6289 197.185 68.7617 197.185 70.3926C197.185 72.0186 198.132 73.1123 199.665 73.1074ZM198.029 69.9141C198.088 69.0938 198.669 68.3711 199.587 68.3711C200.461 68.3711 201.018 69.0303 201.022 69.9141H198.029ZM206.892 73H207.8L209.353 67.4043H209.411L210.954 73H211.862L213.796 65.9297H212.907L211.433 71.6523H211.374L209.87 65.9297H208.884L207.39 71.6523H207.321L205.847 65.9297H204.958L206.892 73ZM216.345 73.1074C217.438 73.1123 218.225 72.5654 218.474 71.7598H217.575C217.38 72.0869 216.979 72.3652 216.345 72.3652C215.402 72.3652 214.748 71.75 214.704 70.627H218.552V70.2754C218.557 68.3125 217.38 67.6289 216.267 67.6289C214.826 67.6289 213.864 68.7617 213.864 70.3926C213.864 72.0186 214.812 73.1123 216.345 73.1074ZM214.709 69.9141C214.768 69.0938 215.349 68.3711 216.267 68.3711C217.141 68.3711 217.697 69.0303 217.702 69.9141H214.709ZM219.753 73H220.563V72.1895H220.661C220.842 72.4824 221.188 73.1123 222.204 73.1074C223.522 73.1123 224.455 72.0479 224.46 70.3633C224.455 68.6836 223.522 67.6289 222.194 67.6289C221.159 67.6289 220.842 68.2539 220.661 68.5371H220.593V65.9297H219.753V73ZM220.573 70.3438C220.573 69.167 221.101 68.3809 222.077 68.3809C223.103 68.3809 223.605 69.2354 223.61 70.3438C223.605 71.4717 223.088 72.3555 222.077 72.3555C221.11 72.3555 220.573 71.5352 220.573 70.3438ZM137.574 86H138.482L140.035 80.4043H140.094L141.637 86H142.545L144.479 78.9297H143.59L142.115 84.6523H142.057L140.553 78.9297H139.566L138.072 84.6523H138.004L136.529 78.9297H135.641L137.574 86ZM146.625 86H147.533L149.086 80.4043H149.144L150.687 86H151.595L153.529 78.9297H152.64L151.166 84.6523H151.107L149.603 78.9297H148.617L147.123 84.6523H147.054L145.58 78.9297H144.691L146.625 86ZM155.675 86H156.583L158.136 80.4043H158.195L159.737 86H160.646L162.579 78.9297H161.691L160.216 84.6523H160.157L158.654 78.9297H157.667L156.173 84.6523H156.105L154.63 78.9297H153.741L155.675 86ZM165.827 86H170.162V85.2188H166.705V82.8457H169.889V82.0742H166.705V79.7109H170.114V78.9297H165.827V86ZM171.928 80.6973H170.961L172.631 83.3438L170.961 86H171.928L173.178 83.9492L174.447 86H175.404L173.695 83.3438L175.404 80.6973H174.438L173.178 82.8555L171.928 80.6973ZM177.16 82.8164C177.16 81.8984 177.746 81.3809 178.537 81.3809C179.298 81.3809 179.757 81.8545 179.757 82.6895V86H180.597V82.6309C180.597 81.2686 179.875 80.6289 178.791 80.6289C177.951 80.6289 177.477 80.9805 177.228 81.5273H177.16V78.9297H176.32V86H177.16V82.8164ZM181.845 86H182.685V80.6973H181.845V86ZM181.679 79.2617C181.674 79.5693 181.943 79.8184 182.265 79.8184C182.587 79.8184 182.856 79.5693 182.861 79.2617C182.856 78.9492 182.587 78.7002 182.265 78.7051C181.943 78.7002 181.674 78.9492 181.679 79.2617ZM184.03 86H184.841V85.1895H184.938C185.119 85.4824 185.466 86.1123 186.481 86.1074C187.8 86.1123 188.732 85.0479 188.737 83.3633C188.732 81.6836 187.8 80.6289 186.471 80.6289C185.436 80.6289 185.119 81.2539 184.938 81.5371H184.87V78.9297H184.03V86ZM184.85 83.3438C184.85 82.167 185.378 81.3809 186.354 81.3809C187.38 81.3809 187.883 82.2354 187.887 83.3438C187.883 84.4717 187.365 85.3555 186.354 85.3555C185.387 85.3555 184.85 84.5352 184.85 83.3438ZM189.731 86H190.571V80.6973H189.731V86ZM189.565 79.2617C189.56 79.5693 189.829 79.8184 190.151 79.8184C190.473 79.8184 190.742 79.5693 190.746 79.2617C190.742 78.9492 190.473 78.7002 190.151 78.7051C189.829 78.7002 189.56 78.9492 189.565 79.2617ZM194.123 80.6973H193.01V79.4277H192.16V80.6973H191.359V81.4004H192.16V84.6914C192.165 85.6289 192.907 86.0684 193.615 86.0684C193.864 86.0684 194.069 86.0488 194.201 86.0293V85.248C194.079 85.2529 193.854 85.2676 193.703 85.2676C193.347 85.2676 193.005 85.1553 193.01 84.4766V81.4004H194.123V80.6973ZM195.107 86H195.947V80.6973H195.107V86ZM194.941 79.2617C194.936 79.5693 195.205 79.8184 195.527 79.8184C195.849 79.8184 196.118 79.5693 196.123 79.2617C196.118 78.9492 195.849 78.7002 195.527 78.7051C195.205 78.7002 194.936 78.9492 194.941 79.2617ZM199.353 86.1074C200.793 86.1123 201.76 85.0186 201.755 83.373C201.76 81.7178 200.793 80.6289 199.353 80.6289C197.907 80.6289 196.931 81.7178 196.931 83.373C196.931 85.0186 197.907 86.1123 199.353 86.1074ZM197.771 83.373C197.776 82.3184 198.274 81.3711 199.353 81.3711C200.422 81.3711 200.915 82.3184 200.915 83.373C200.915 84.4326 200.422 85.3652 199.353 85.3652C198.274 85.3652 197.776 84.4326 197.771 83.373ZM203.598 82.8164C203.598 81.8984 204.165 81.3809 204.936 81.3809C205.688 81.3809 206.137 81.8691 206.137 82.6895V86H206.977V82.6309C206.982 81.2832 206.264 80.6289 205.19 80.6289C204.385 80.6289 203.887 80.9854 203.637 81.5273H203.569V80.6973H202.759V86H203.598V82.8164ZM210.635 86H211.475V82.6895C211.475 81.918 212.031 81.3809 212.666 81.3809C213.276 81.3809 213.706 81.7812 213.701 82.377V86H214.551V82.5527C214.556 81.8789 214.976 81.3809 215.713 81.3809C216.294 81.3809 216.782 81.6836 216.787 82.4648V86H217.627V82.4551C217.627 81.2051 216.948 80.6289 216.006 80.6289C215.244 80.6289 214.683 80.9805 214.414 81.5273H214.355C214.106 80.9609 213.633 80.6289 212.939 80.6289C212.246 80.6289 211.733 80.9609 211.514 81.5273H211.445V80.6973H210.635V86ZM218.621 84.4961C218.621 85.5312 219.421 86.1221 220.427 86.127C221.35 86.1221 221.834 85.6338 222.009 85.2773H222.048V86H222.879V82.5039C222.883 80.834 221.58 80.6289 220.886 80.6289C219.714 80.6289 218.884 81.2197 218.777 82.0742H219.656C219.773 81.6689 220.178 81.3613 220.847 81.3613C221.648 81.3613 222.048 81.752 222.048 82.4258V82.8555C221.809 82.8604 220.955 82.9092 220.613 82.9336C219.695 83.002 218.621 83.2803 218.621 84.4961ZM219.461 84.5352C219.465 83.9541 219.949 83.6855 220.711 83.6367C220.964 83.6221 221.799 83.5586 222.048 83.5439V84.0762C222.048 84.7451 221.521 85.3799 220.574 85.375C219.929 85.3799 219.465 85.0967 219.461 84.5352ZM224.126 86H224.966V82.6602C224.966 81.9473 225.532 81.4199 226.294 81.4199C226.514 81.4199 226.738 81.4639 226.802 81.4785V80.6289C226.704 80.6191 226.489 80.6143 226.363 80.6094C225.738 80.6143 225.186 80.9707 224.995 81.5078H224.937V80.6973H224.126V86ZM227.522 86H228.362V84.0225L228.924 83.5L230.891 86H231.956L229.554 82.9678L231.79 80.6973H230.755L228.46 83.041H228.362V78.9297H227.522V86ZM234.59 86.1074C235.684 86.1123 236.47 85.5654 236.719 84.7598H235.821C235.625 85.0869 235.225 85.3652 234.59 85.3652C233.648 85.3652 232.994 84.75 232.95 83.627H236.797V83.2754C236.802 81.3125 235.625 80.6289 234.512 80.6289C233.072 80.6289 232.11 81.7617 232.11 83.3926C232.11 85.0186 233.057 86.1123 234.59 86.1074ZM232.954 82.9141C233.013 82.0938 233.594 81.3711 234.512 81.3711C235.386 81.3711 235.943 82.0303 235.948 82.9141H232.954ZM240.105 80.6973H238.992V79.4277H238.143V80.6973H237.342V81.4004H238.143V84.6914C238.147 85.6289 238.89 86.0684 239.598 86.0684C239.847 86.0684 240.052 86.0488 240.184 86.0293V85.248C240.062 85.2529 239.837 85.2676 239.686 85.2676C239.329 85.2676 238.987 85.1553 238.992 84.4766V81.4004H240.105V80.6973ZM119.344 95.7383H115.77V94.8301C117.415 94.7422 118.451 94.1172 118.455 93.0918C118.451 92.0225 117.254 91.3779 115.389 91.373C113.504 91.3779 112.313 92.0225 112.313 93.0918C112.313 94.1172 113.343 94.7422 115.008 94.8301V95.7383H111.434V96.373H119.344V95.7383ZM112.459 99.6055H118.465V98.9609H113.231V97.0762H112.459V99.6055ZM113.104 93.0918C113.099 92.4277 113.988 91.998 115.389 91.998C116.781 91.998 117.669 92.4277 117.674 93.0918C117.669 93.7998 116.781 94.2051 115.389 94.2051C113.988 94.2051 113.099 93.7998 113.104 93.0918ZM126.695 91.1094H125.934V99.8105H126.695V95.2109H128.15V94.5664H126.695V91.1094ZM120.318 92.5547H123.502V94.3906H120.338V97.7109H121.031C122.706 97.7012 123.863 97.6377 125.23 97.3887L125.152 96.7539C123.839 96.998 122.711 97.0615 121.1 97.0566V95.0254H124.264V91.9199H120.318V92.5547ZM135.687 91.1191H134.925V97.4668H135.687V91.1191ZM128.724 93.8535C128.719 95.1182 129.701 95.9971 131 95.9922C132.298 95.9971 133.27 95.1182 133.275 93.8535C133.27 92.6035 132.298 91.7295 131 91.7246C129.701 91.7295 128.719 92.6035 128.724 93.8535ZM129.476 93.8535C129.466 93.0039 130.121 92.3984 131 92.3984C131.864 92.3984 132.523 93.0039 132.523 93.8535C132.523 94.7178 131.864 95.3184 131 95.3184C130.121 95.3184 129.466 94.7178 129.476 93.8535ZM130.082 99.6055H135.961V98.9609H130.843V96.8223H130.082V99.6055ZM138.487 98.3457H137.54L137.003 101.002H137.726L138.487 98.3457ZM145.885 91.6758C144.044 91.6855 142.711 92.584 142.711 93.9512C142.711 95.2402 143.864 96.0947 145.504 96.2119V98.0332H141.93V98.6777H149.879V98.0332H146.256V96.2119C147.907 96.0996 149.059 95.2451 149.059 93.9512C149.059 92.584 147.731 91.6855 145.885 91.6758ZM143.454 93.9512C143.449 92.9697 144.479 92.3057 145.885 92.3105C147.291 92.3057 148.317 92.9697 148.317 93.9512C148.317 94.9521 147.291 95.6016 145.885 95.6113C144.479 95.6016 143.449 94.9521 143.454 93.9512ZM158.422 98.0234H150.473V98.6777H158.422V98.0234ZM151.176 92.623H152.553V95.6602H151.195V96.2852H157.641V95.6602H156.283V92.623H157.66V91.9883H151.176V92.623ZM153.314 95.6602V92.623H155.531V95.6602H153.314ZM165.734 91.1094H164.972V99.8105H165.734V95.2109H167.189V94.5664H165.734V91.1094ZM159.357 92.5547H162.541V94.3906H159.377V97.7109H160.07C161.745 97.7012 162.902 97.6377 164.269 97.3887L164.191 96.7539C162.878 96.998 161.75 97.0615 160.138 97.0566V95.0254H163.302V91.9199H159.357V92.5547ZM174.726 91.1191H173.964V97.4668H174.726V91.1191ZM167.763 93.8535C167.758 95.1182 168.739 95.9971 170.038 95.9922C171.337 95.9971 172.309 95.1182 172.314 93.8535C172.309 92.6035 171.337 91.7295 170.038 91.7246C168.739 91.7295 167.758 92.6035 167.763 93.8535ZM168.515 93.8535C168.505 93.0039 169.159 92.3984 170.038 92.3984C170.903 92.3984 171.562 93.0039 171.562 93.8535C171.562 94.7178 170.903 95.3184 170.038 95.3184C169.159 95.3184 168.505 94.7178 168.515 93.8535ZM169.12 99.6055H174.999V98.9609H169.882V96.8223H169.12V99.6055ZM177.526 98.3457H176.579L176.042 101.002H176.764L177.526 98.3457ZM183.879 93.4434V91.8613H183.127V93.4434C183.117 95.0303 182.111 96.6953 180.842 97.3203L181.33 97.9355C182.307 97.4131 183.127 96.3145 183.513 95.0352C183.898 96.2412 184.699 97.2715 185.656 97.7695L186.125 97.1543C184.89 96.5488 183.879 94.9717 183.879 93.4434ZM186.926 99.791H187.688V95.2988H189.143V94.6348H187.688V91.1094H186.926V99.791ZM196.298 91.1191H195.537V96.2949H196.298V94H197.617V93.3457H196.298V91.1191ZM189.882 92.2227H193.066V93.3652H189.902V95.8359H190.576C192.192 95.8359 193.354 95.7871 194.746 95.543L194.668 94.9277C193.315 95.1475 192.197 95.1963 190.654 95.1914V93.9609H193.818V91.5879H189.882V92.2227ZM190.8 99.6738H196.298V96.7246H190.8V99.6738ZM191.552 99.0488V97.3203H195.556V99.0488H191.552ZM205.964 95.6895H198.054V96.3145H205.964V95.6895ZM198.933 93.1406C198.933 94.2197 200.124 94.8691 202.009 94.8691C203.874 94.8691 205.071 94.2197 205.075 93.1406C205.071 92.0518 203.874 91.4121 202.009 91.4219C200.124 91.4121 198.933 92.0518 198.933 93.1406ZM199.079 99.6055H205.085V98.9609H199.851V97.0762H199.079V99.6055ZM199.724 93.1406C199.719 92.4619 200.608 92.0371 202.009 92.0371C203.401 92.0371 204.289 92.4619 204.294 93.1406C204.289 93.8291 203.401 94.2441 202.009 94.2441C200.608 94.2441 199.719 93.8291 199.724 93.1406ZM216.204 91.1191H215.432V92.4766H213.176C212.771 91.9736 212.136 91.6709 211.399 91.666C210.1 91.6709 209.138 92.5693 209.143 93.8438C209.138 95.1133 210.1 96.0117 211.399 96.0117C212.141 96.0117 212.786 95.7041 213.186 95.1914H215.432V97.5352H216.204V91.1191ZM209.875 93.8438C209.875 92.9795 210.51 92.3545 211.399 92.3496C212.253 92.3545 212.903 92.9795 212.903 93.8438C212.903 94.7129 212.253 95.333 211.399 95.3281C210.51 95.333 209.875 94.7129 209.875 93.8438ZM210.627 99.6055H216.448V98.9609H211.399V96.8613H210.627V99.6055ZM213.523 93.1113H215.432V94.5566H213.528C213.601 94.3369 213.645 94.0977 213.645 93.8438C213.645 93.5801 213.601 93.3359 213.523 93.1113ZM224.746 91.1094H223.975V92.3789H221.968C222.021 92.1152 222.051 91.8369 222.051 91.5488H218.135V92.1836H221.206C221.06 93.585 219.824 94.6201 217.695 95.1133L217.969 95.748C219.897 95.2842 221.245 94.3613 221.787 92.9941H223.975V94.0391H221.66V94.6445H223.975V95.5527H224.746V91.1094ZM219.121 96.5684H223.975V97.4766H219.141V99.7129H225.039V99.0781H219.902V98.0625H224.746V95.9434H219.121V96.5684ZM231.267 94.8594H227.556V92.5645H231.228V91.9395H226.804V95.4941H228.601V97.2324C227.737 97.2568 226.897 97.2617 226.14 97.2617L226.248 97.9062C227.908 97.9111 230.007 97.8721 231.931 97.5938L231.873 97.0176C231.067 97.1104 230.213 97.1689 229.363 97.2031V95.4941H231.267V94.8594ZM232.449 99.8105H233.211V91.1094H232.449V99.8105ZM236.968 91.7832C235.684 91.7881 234.785 92.9648 234.79 94.8105C234.785 96.6611 235.684 97.833 236.968 97.8281C238.179 97.833 239.048 96.7686 239.131 95.0645H241.07V99.8105H241.831V91.1094H241.07V94.4297H239.121C239.004 92.8037 238.15 91.7881 236.968 91.7832ZM235.523 94.8105C235.528 93.3994 236.113 92.4717 236.968 92.4668C237.818 92.4717 238.413 93.3994 238.413 94.8105C238.413 96.2217 237.818 97.1494 236.968 97.1445C236.113 97.1494 235.528 96.2217 235.523 94.8105ZM248.526 96.9395V96.4609H247.784V96.9395C247.774 97.7695 247.115 98.6973 246.016 99.1074L246.407 99.6738C247.237 99.3613 247.832 98.7559 248.145 98.0576C248.404 98.7852 248.941 99.4199 249.786 99.7422C250.586 99.4053 251.119 98.7363 251.387 98.0332C251.69 98.7607 252.295 99.3662 253.164 99.6738L253.545 99.1074C252.432 98.7217 251.773 97.833 251.778 96.9395V96.4609H251.026V96.9395C251.031 97.6084 250.591 98.4775 249.761 98.9902C248.936 98.5215 248.521 97.7061 248.526 96.9395ZM245.791 93.6582C245.787 94.8496 246.748 95.6699 248.067 95.6699C249.385 95.6699 250.337 94.8496 250.342 93.6582C250.337 92.4473 249.385 91.6221 248.067 91.627C246.748 91.6221 245.787 92.4473 245.791 93.6582ZM246.543 93.6582C246.534 92.8477 247.173 92.2715 248.067 92.2812C248.951 92.2715 249.59 92.8477 249.59 93.6582C249.59 94.4639 248.951 95.0303 248.067 95.0352C247.173 95.0303 246.534 94.4639 246.543 93.6582ZM251.993 96.0801H252.754V91.1191H251.993V96.0801ZM260.848 91.1094H260.086V99.8105H260.848V95.1914H262.303V94.5469H260.848V91.1094ZM254.51 97.6328H255.193C256.844 97.6328 257.981 97.584 259.344 97.3398L259.246 96.6758C257.952 96.915 256.844 96.9834 255.271 96.9883V92.5938H258.562V91.959H254.51V97.6328Z" fill="white"/>
<path d="M90.4 129.31C90.26 129.683 90.06 130.007 89.8 130.28C89.54 130.547 89.2333 130.75 88.88 130.89C88.5333 131.03 88.1533 131.1 87.74 131.1C87.1133 131.1 86.57 130.963 86.11 130.69C85.6567 130.41 85.3033 130.017 85.05 129.51C84.8033 129.003 84.68 128.4 84.68 127.7C84.68 127 84.8033 126.397 85.05 125.89C85.3033 125.383 85.6567 124.993 86.11 124.72C86.57 124.44 87.1067 124.3 87.72 124.3C88.1467 124.3 88.5267 124.36 88.86 124.48C89.1933 124.593 89.4767 124.767 89.71 125C89.95 125.227 90.14 125.507 90.28 125.84L89.49 126.21C89.3433 125.83 89.13 125.543 88.85 125.35C88.5767 125.15 88.22 125.05 87.78 125.05C87.3333 125.05 86.94 125.157 86.6 125.37C86.26 125.577 85.9933 125.877 85.8 126.27C85.6133 126.663 85.52 127.14 85.52 127.7C85.52 128.253 85.61 128.73 85.79 129.13C85.97 129.523 86.2267 129.827 86.56 130.04C86.8933 130.247 87.2867 130.35 87.74 130.35C88.18 130.35 88.5633 130.24 88.89 130.02C89.2167 129.793 89.4533 129.457 89.6 129.01L90.4 129.31ZM93.8555 125.9C94.3288 125.9 94.7455 126.003 95.1055 126.21C95.4721 126.417 95.7588 126.717 95.9655 127.11C96.1721 127.497 96.2755 127.96 96.2755 128.5C96.2755 129.04 96.1721 129.507 95.9655 129.9C95.7588 130.287 95.4721 130.583 95.1055 130.79C94.7455 130.997 94.3288 131.1 93.8555 131.1C93.3888 131.1 92.9721 130.997 92.6055 130.79C92.2388 130.583 91.9521 130.287 91.7455 129.9C91.5388 129.507 91.4355 129.04 91.4355 128.5C91.4355 127.96 91.5388 127.497 91.7455 127.11C91.9521 126.717 92.2388 126.417 92.6055 126.21C92.9721 126.003 93.3888 125.9 93.8555 125.9ZM93.8555 126.59C93.5155 126.59 93.2255 126.667 92.9855 126.82C92.7455 126.973 92.5588 127.193 92.4255 127.48C92.2988 127.76 92.2355 128.1 92.2355 128.5C92.2355 128.893 92.2988 129.233 92.4255 129.52C92.5588 129.807 92.7455 130.027 92.9855 130.18C93.2255 130.333 93.5155 130.41 93.8555 130.41C94.1955 130.41 94.4855 130.333 94.7255 130.18C94.9655 130.027 95.1488 129.807 95.2755 129.52C95.4088 129.233 95.4755 128.893 95.4755 128.5C95.4755 128.1 95.4088 127.76 95.2755 127.48C95.1488 127.193 94.9655 126.973 94.7255 126.82C94.4855 126.667 94.1955 126.59 93.8555 126.59ZM97.7816 133.1V126H98.4816L98.5516 127.22L98.4416 127.08C98.5282 126.847 98.6582 126.643 98.8316 126.47C99.0049 126.29 99.2149 126.15 99.4616 126.05C99.7082 125.95 99.9749 125.9 100.262 125.9C100.668 125.9 101.042 126.003 101.382 126.21C101.728 126.417 102.005 126.713 102.212 127.1C102.418 127.487 102.522 127.953 102.522 128.5C102.522 129.04 102.415 129.507 102.202 129.9C101.995 130.287 101.718 130.583 101.372 130.79C101.025 130.997 100.645 131.1 100.232 131.1C99.8182 131.1 99.4549 131 99.1416 130.8C98.8349 130.593 98.6149 130.333 98.4816 130.02L98.5816 129.87V133.1H97.7816ZM100.152 130.4C100.645 130.4 101.028 130.227 101.302 129.88C101.582 129.533 101.722 129.073 101.722 128.5C101.722 127.927 101.585 127.467 101.312 127.12C101.045 126.773 100.668 126.6 100.182 126.6C99.8616 126.6 99.5816 126.68 99.3416 126.84C99.1016 126.993 98.9149 127.213 98.7816 127.5C98.6482 127.78 98.5816 128.113 98.5816 128.5C98.5816 128.88 98.6449 129.213 98.7716 129.5C98.9049 129.787 99.0882 130.01 99.3216 130.17C99.5616 130.323 99.8382 130.4 100.152 130.4ZM108.015 126L105.665 131.84C105.538 132.167 105.398 132.423 105.245 132.61C105.098 132.803 104.931 132.94 104.745 133.02C104.565 133.107 104.355 133.15 104.115 133.15C103.888 133.15 103.678 133.117 103.485 133.05C103.298 132.99 103.131 132.907 102.985 132.8L103.205 132.1C103.338 132.22 103.478 132.307 103.625 132.36C103.778 132.42 103.928 132.45 104.075 132.45C104.248 132.45 104.411 132.397 104.565 132.29C104.718 132.183 104.858 131.967 104.985 131.64L105.245 130.99L104.745 129.8L103.155 126H104.065L105.315 129.26L105.625 130.15L105.985 129.16L107.155 126H108.015ZM109.061 131V126H109.711L109.821 126.82C109.961 126.513 110.164 126.283 110.431 126.13C110.704 125.977 111.034 125.9 111.421 125.9C111.508 125.9 111.601 125.907 111.701 125.92C111.808 125.933 111.898 125.96 111.971 126L111.831 126.73C111.758 126.703 111.678 126.683 111.591 126.67C111.504 126.657 111.381 126.65 111.221 126.65C111.014 126.65 110.804 126.71 110.591 126.83C110.384 126.95 110.211 127.133 110.071 127.38C109.931 127.62 109.861 127.927 109.861 128.3V131H109.061ZM113.543 125.04C113.363 125.04 113.216 124.987 113.103 124.88C112.996 124.767 112.943 124.62 112.943 124.44C112.943 124.26 112.996 124.117 113.103 124.01C113.216 123.897 113.363 123.84 113.543 123.84C113.723 123.84 113.866 123.897 113.973 124.01C114.086 124.117 114.143 124.26 114.143 124.44C114.143 124.62 114.086 124.767 113.973 124.88C113.866 124.987 113.723 125.04 113.543 125.04ZM113.943 126V131H113.143V126H113.943ZM120.009 125.08L120.189 125.79C120.182 125.79 120.172 125.79 120.159 125.79C120.146 125.79 120.132 125.79 120.119 125.79C119.792 125.79 119.539 125.857 119.359 125.99C119.186 126.117 119.099 126.323 119.099 126.61L118.609 126.36C118.609 126.1 118.669 125.873 118.789 125.68C118.909 125.487 119.072 125.34 119.279 125.24C119.486 125.133 119.712 125.08 119.959 125.08C119.966 125.08 119.972 125.08 119.979 125.08C119.992 125.08 120.002 125.08 120.009 125.08ZM118.489 130.36C118.962 130.36 119.332 130.47 119.599 130.69C119.866 130.903 119.999 131.19 119.999 131.55C119.999 131.877 119.889 132.16 119.669 132.4C119.456 132.64 119.166 132.823 118.799 132.95C118.439 133.083 118.032 133.15 117.579 133.15C116.792 133.15 116.202 133.017 115.809 132.75C115.422 132.483 115.229 132.163 115.229 131.79C115.229 131.523 115.316 131.283 115.489 131.07C115.669 130.863 115.969 130.747 116.389 130.72L116.319 130.87C116.092 130.81 115.899 130.71 115.739 130.57C115.586 130.423 115.509 130.213 115.509 129.94C115.509 129.667 115.609 129.433 115.809 129.24C116.016 129.04 116.319 128.917 116.719 128.87L117.249 129.14H117.149C116.822 129.173 116.589 129.257 116.449 129.39C116.316 129.517 116.249 129.657 116.249 129.81C116.249 129.997 116.316 130.137 116.449 130.23C116.589 130.317 116.782 130.36 117.029 130.36H118.489ZM117.569 132.48C117.956 132.48 118.272 132.44 118.519 132.36C118.772 132.28 118.959 132.177 119.079 132.05C119.199 131.923 119.259 131.787 119.259 131.64C119.259 131.46 119.186 131.317 119.039 131.21C118.899 131.103 118.642 131.05 118.269 131.05H116.729C116.516 131.05 116.336 131.103 116.189 131.21C116.042 131.323 115.969 131.477 115.969 131.67C115.969 131.917 116.109 132.113 116.389 132.26C116.676 132.407 117.069 132.48 117.569 132.48ZM117.499 125.9C117.899 125.9 118.252 125.973 118.559 126.12C118.872 126.26 119.116 126.457 119.289 126.71C119.462 126.963 119.549 127.257 119.549 127.59C119.549 127.917 119.462 128.21 119.289 128.47C119.116 128.723 118.872 128.923 118.559 129.07C118.252 129.21 117.899 129.28 117.499 129.28C116.839 129.28 116.332 129.123 115.979 128.81C115.626 128.49 115.449 128.083 115.449 127.59C115.449 127.257 115.536 126.963 115.709 126.71C115.889 126.457 116.132 126.26 116.439 126.12C116.746 125.973 117.099 125.9 117.499 125.9ZM117.499 126.55C117.152 126.55 116.862 126.647 116.629 126.84C116.396 127.027 116.279 127.277 116.279 127.59C116.279 127.897 116.396 128.147 116.629 128.34C116.862 128.533 117.152 128.63 117.499 128.63C117.846 128.63 118.136 128.533 118.369 128.34C118.602 128.147 118.719 127.897 118.719 127.59C118.719 127.277 118.602 127.027 118.369 126.84C118.136 126.647 117.846 126.55 117.499 126.55ZM121.121 131V123.7H121.921V126.75C122.095 126.45 122.325 126.233 122.611 126.1C122.898 125.967 123.211 125.9 123.551 125.9C123.911 125.9 124.238 125.97 124.531 126.11C124.825 126.243 125.058 126.45 125.231 126.73C125.411 127.01 125.501 127.367 125.501 127.8V131H124.701V128.08C124.701 127.527 124.581 127.143 124.341 126.93C124.108 126.71 123.818 126.6 123.471 126.6C123.231 126.6 122.991 126.657 122.751 126.77C122.511 126.883 122.311 127.07 122.151 127.33C121.998 127.583 121.921 127.923 121.921 128.35V131H121.121ZM128.424 124.58V129.62C128.424 129.867 128.494 130.05 128.634 130.17C128.774 130.29 128.954 130.35 129.174 130.35C129.368 130.35 129.534 130.317 129.674 130.25C129.814 130.183 129.941 130.093 130.054 129.98L130.334 130.65C130.181 130.79 129.998 130.9 129.784 130.98C129.578 131.06 129.338 131.1 129.064 131.1C128.811 131.1 128.574 131.057 128.354 130.97C128.134 130.877 127.958 130.733 127.824 130.54C127.698 130.34 127.631 130.08 127.624 129.76V124.8L128.424 124.58ZM130.244 126V126.69H126.624V126H130.244ZM135.774 129.1C135.294 129.1 134.921 128.953 134.654 128.66C134.387 128.367 134.254 127.96 134.254 127.44C134.254 126.907 134.391 126.497 134.664 126.21C134.944 125.917 135.327 125.77 135.814 125.77C135.974 125.77 136.127 125.787 136.274 125.82C136.427 125.847 136.577 125.893 136.724 125.96L136.554 126.46C136.427 126.407 136.301 126.367 136.174 126.34C136.054 126.313 135.931 126.3 135.804 126.3C135.511 126.3 135.287 126.397 135.134 126.59C134.987 126.777 134.914 127.06 134.914 127.44C134.914 127.8 134.987 128.08 135.134 128.28C135.281 128.473 135.494 128.57 135.774 128.57C135.907 128.57 136.047 128.553 136.194 128.52C136.347 128.48 136.507 128.427 136.674 128.36V128.9C136.514 128.967 136.361 129.017 136.214 129.05C136.067 129.083 135.921 129.1 135.774 129.1ZM135.504 131.55C134.937 131.55 134.404 131.443 133.904 131.23C133.404 131.017 132.964 130.723 132.584 130.35C132.211 129.97 131.917 129.53 131.704 129.03C131.491 128.53 131.384 127.997 131.384 127.43C131.384 126.857 131.491 126.323 131.704 125.83C131.917 125.33 132.211 124.893 132.584 124.52C132.964 124.14 133.404 123.843 133.904 123.63C134.404 123.417 134.937 123.31 135.504 123.31C136.077 123.31 136.611 123.417 137.104 123.63C137.604 123.843 138.041 124.14 138.414 124.52C138.794 124.893 139.091 125.33 139.304 125.83C139.517 126.323 139.624 126.857 139.624 127.43C139.624 127.997 139.517 128.53 139.304 129.03C139.091 129.53 138.794 129.97 138.414 130.35C138.041 130.723 137.604 131.017 137.104 131.23C136.611 131.443 136.077 131.55 135.504 131.55ZM135.504 130.99C135.997 130.99 136.457 130.9 136.884 130.72C137.317 130.533 137.697 130.277 138.024 129.95C138.351 129.623 138.604 129.247 138.784 128.82C138.971 128.387 139.064 127.923 139.064 127.43C139.064 126.937 138.971 126.477 138.784 126.05C138.604 125.617 138.351 125.237 138.024 124.91C137.697 124.583 137.317 124.33 136.884 124.15C136.457 123.963 135.997 123.87 135.504 123.87C135.011 123.87 134.547 123.963 134.114 124.15C133.687 124.33 133.311 124.583 132.984 124.91C132.657 125.237 132.401 125.617 132.214 126.05C132.034 126.477 131.944 126.937 131.944 127.43C131.944 127.923 132.034 128.387 132.214 128.82C132.401 129.247 132.657 129.623 132.984 129.95C133.311 130.277 133.687 130.533 134.114 130.72C134.547 130.9 135.011 130.99 135.504 130.99ZM141.244 131V130.35C141.904 129.863 142.454 129.437 142.894 129.07C143.341 128.703 143.697 128.37 143.964 128.07C144.231 127.77 144.421 127.487 144.534 127.22C144.647 126.947 144.704 126.663 144.704 126.37C144.704 125.977 144.577 125.66 144.324 125.42C144.077 125.173 143.737 125.05 143.304 125.05C142.851 125.05 142.487 125.2 142.214 125.5C141.941 125.793 141.781 126.187 141.734 126.68L141.034 126.26C141.094 125.873 141.217 125.533 141.404 125.24C141.597 124.947 141.854 124.717 142.174 124.55C142.501 124.383 142.887 124.3 143.334 124.3C143.674 124.3 143.977 124.35 144.244 124.45C144.517 124.55 144.751 124.693 144.944 124.88C145.137 125.06 145.284 125.277 145.384 125.53C145.491 125.783 145.544 126.063 145.544 126.37C145.544 126.783 145.444 127.19 145.244 127.59C145.044 127.983 144.714 128.397 144.254 128.83C143.794 129.263 143.171 129.743 142.384 130.27V130.28C142.457 130.273 142.557 130.27 142.684 130.27C142.817 130.263 142.947 130.26 143.074 130.26C143.207 130.253 143.307 130.25 143.374 130.25H145.684V131H141.244ZM149.444 131.1C148.697 131.1 148.101 130.81 147.654 130.23C147.207 129.65 146.984 128.807 146.984 127.7C146.984 126.593 147.207 125.75 147.654 125.17C148.101 124.59 148.697 124.3 149.444 124.3C150.197 124.3 150.794 124.59 151.234 125.17C151.681 125.75 151.904 126.593 151.904 127.7C151.904 128.807 151.681 129.65 151.234 130.23C150.794 130.81 150.197 131.1 149.444 131.1ZM149.444 130.38C149.797 130.38 150.094 130.28 150.334 130.08C150.581 129.873 150.764 129.57 150.884 129.17C151.011 128.77 151.074 128.28 151.074 127.7C151.074 127.12 151.011 126.63 150.884 126.23C150.764 125.83 150.581 125.53 150.334 125.33C150.094 125.123 149.797 125.02 149.444 125.02C149.091 125.02 148.791 125.123 148.544 125.33C148.304 125.53 148.121 125.83 147.994 126.23C147.874 126.63 147.814 127.12 147.814 127.7C147.814 128.28 147.874 128.77 147.994 129.17C148.121 129.57 148.304 129.873 148.544 130.08C148.791 130.28 149.091 130.38 149.444 130.38ZM153.295 131V130.35C153.955 129.863 154.505 129.437 154.945 129.07C155.391 128.703 155.748 128.37 156.015 128.07C156.281 127.77 156.471 127.487 156.585 127.22C156.698 126.947 156.755 126.663 156.755 126.37C156.755 125.977 156.628 125.66 156.375 125.42C156.128 125.173 155.788 125.05 155.355 125.05C154.901 125.05 154.538 125.2 154.265 125.5C153.991 125.793 153.831 126.187 153.785 126.68L153.085 126.26C153.145 125.873 153.268 125.533 153.455 125.24C153.648 124.947 153.905 124.717 154.225 124.55C154.551 124.383 154.938 124.3 155.385 124.3C155.725 124.3 156.028 124.35 156.295 124.45C156.568 124.55 156.801 124.693 156.995 124.88C157.188 125.06 157.335 125.277 157.435 125.53C157.541 125.783 157.595 126.063 157.595 126.37C157.595 126.783 157.495 127.19 157.295 127.59C157.095 127.983 156.765 128.397 156.305 128.83C155.845 129.263 155.221 129.743 154.435 130.27V130.28C154.508 130.273 154.608 130.27 154.735 130.27C154.868 130.263 154.998 130.26 155.125 130.26C155.258 130.253 155.358 130.25 155.425 130.25H157.735V131H153.295ZM159.125 131V130.35C159.785 129.863 160.335 129.437 160.775 129.07C161.221 128.703 161.578 128.37 161.845 128.07C162.111 127.77 162.301 127.487 162.415 127.22C162.528 126.947 162.585 126.663 162.585 126.37C162.585 125.977 162.458 125.66 162.205 125.42C161.958 125.173 161.618 125.05 161.185 125.05C160.731 125.05 160.368 125.2 160.095 125.5C159.821 125.793 159.661 126.187 159.615 126.68L158.915 126.26C158.975 125.873 159.098 125.533 159.285 125.24C159.478 124.947 159.735 124.717 160.055 124.55C160.381 124.383 160.768 124.3 161.215 124.3C161.555 124.3 161.858 124.35 162.125 124.45C162.398 124.55 162.631 124.693 162.825 124.88C163.018 125.06 163.165 125.277 163.265 125.53C163.371 125.783 163.425 126.063 163.425 126.37C163.425 126.783 163.325 127.19 163.125 127.59C162.925 127.983 162.595 128.397 162.135 128.83C161.675 129.263 161.051 129.743 160.265 130.27V130.28C160.338 130.273 160.438 130.27 160.565 130.27C160.698 130.263 160.828 130.26 160.955 130.26C161.088 130.253 161.188 130.25 161.255 130.25H163.565V131H159.125ZM165.545 129.8C165.738 129.8 165.895 129.86 166.015 129.98C166.135 130.1 166.195 130.257 166.195 130.45C166.195 130.643 166.135 130.8 166.015 130.92C165.895 131.04 165.738 131.1 165.545 131.1C165.352 131.1 165.195 131.04 165.075 130.92C164.955 130.8 164.895 130.643 164.895 130.45C164.895 130.257 164.955 130.1 165.075 129.98C165.195 129.86 165.352 129.8 165.545 129.8ZM168.429 131L166.479 124.4H167.309L168.939 130.27L170.489 124.4H171.399L172.949 130.29L174.579 124.4H175.369L173.429 131H172.439L171.269 126.72L170.929 125.23H170.919L170.579 126.72L169.419 131H168.429ZM178.039 131L176.089 124.4H176.919L178.549 130.27L180.099 124.4H181.009L182.559 130.29L184.189 124.4H184.979L183.039 131H182.049L180.879 126.72L180.539 125.23H180.529L180.189 126.72L179.029 131H178.039ZM187.648 131L185.698 124.4H186.528L188.158 130.27L189.708 124.4H190.618L192.168 130.29L193.798 124.4H194.588L192.648 131H191.658L190.488 126.72L190.148 125.23H190.138L189.798 126.72L188.638 131H187.648ZM195.525 129.8C195.719 129.8 195.875 129.86 195.995 129.98C196.115 130.1 196.175 130.257 196.175 130.45C196.175 130.643 196.115 130.8 195.995 130.92C195.875 131.04 195.719 131.1 195.525 131.1C195.332 131.1 195.175 131.04 195.055 130.92C194.935 130.8 194.875 130.643 194.875 130.45C194.875 130.257 194.935 130.1 195.055 129.98C195.175 129.86 195.332 129.8 195.525 129.8ZM206.199 131H205.349L204.649 129.17H201.659L200.959 131H200.119L202.689 124.4H203.639L206.199 131ZM201.949 128.42H204.359L203.149 125.17L201.949 128.42ZM208.151 123.7V129.73C208.151 129.983 208.198 130.16 208.291 130.26C208.384 130.353 208.534 130.4 208.741 130.4C208.874 130.4 208.984 130.39 209.071 130.37C209.158 130.35 209.274 130.313 209.421 130.26L209.291 130.96C209.184 131.007 209.068 131.04 208.941 131.06C208.814 131.087 208.684 131.1 208.551 131.1C208.144 131.1 207.841 130.99 207.641 130.77C207.448 130.55 207.351 130.213 207.351 129.76V123.7H208.151ZM211.208 123.7V129.73C211.208 129.983 211.254 130.16 211.348 130.26C211.441 130.353 211.591 130.4 211.798 130.4C211.931 130.4 212.041 130.39 212.128 130.37C212.214 130.35 212.331 130.313 212.478 130.26L212.348 130.96C212.241 131.007 212.124 131.04 211.998 131.06C211.871 131.087 211.741 131.1 211.608 131.1C211.201 131.1 210.898 130.99 210.698 130.77C210.504 130.55 210.408 130.213 210.408 129.76V123.7H211.208ZM216.561 131V126H217.211L217.321 126.82C217.461 126.513 217.664 126.283 217.931 126.13C218.204 125.977 218.534 125.9 218.921 125.9C219.008 125.9 219.101 125.907 219.201 125.92C219.308 125.933 219.398 125.96 219.471 126L219.331 126.73C219.258 126.703 219.178 126.683 219.091 126.67C219.004 126.657 218.881 126.65 218.721 126.65C218.514 126.65 218.304 126.71 218.091 126.83C217.884 126.95 217.711 127.133 217.571 127.38C217.431 127.62 217.361 127.927 217.361 128.3V131H216.561ZM221.043 125.04C220.863 125.04 220.716 124.987 220.603 124.88C220.496 124.767 220.443 124.62 220.443 124.44C220.443 124.26 220.496 124.117 220.603 124.01C220.716 123.897 220.863 123.84 221.043 123.84C221.223 123.84 221.366 123.897 221.473 124.01C221.586 124.117 221.643 124.26 221.643 124.44C221.643 124.62 221.586 124.767 221.473 124.88C221.366 124.987 221.223 125.04 221.043 125.04ZM221.443 126V131H220.643V126H221.443ZM227.509 125.08L227.689 125.79C227.682 125.79 227.672 125.79 227.659 125.79C227.646 125.79 227.632 125.79 227.619 125.79C227.292 125.79 227.039 125.857 226.859 125.99C226.686 126.117 226.599 126.323 226.599 126.61L226.109 126.36C226.109 126.1 226.169 125.873 226.289 125.68C226.409 125.487 226.572 125.34 226.779 125.24C226.986 125.133 227.212 125.08 227.459 125.08C227.466 125.08 227.472 125.08 227.479 125.08C227.492 125.08 227.502 125.08 227.509 125.08ZM225.989 130.36C226.462 130.36 226.832 130.47 227.099 130.69C227.366 130.903 227.499 131.19 227.499 131.55C227.499 131.877 227.389 132.16 227.169 132.4C226.956 132.64 226.666 132.823 226.299 132.95C225.939 133.083 225.532 133.15 225.079 133.15C224.292 133.15 223.702 133.017 223.309 132.75C222.922 132.483 222.729 132.163 222.729 131.79C222.729 131.523 222.816 131.283 222.989 131.07C223.169 130.863 223.469 130.747 223.889 130.72L223.819 130.87C223.592 130.81 223.399 130.71 223.239 130.57C223.086 130.423 223.009 130.213 223.009 129.94C223.009 129.667 223.109 129.433 223.309 129.24C223.516 129.04 223.819 128.917 224.219 128.87L224.749 129.14H224.649C224.322 129.173 224.089 129.257 223.949 129.39C223.816 129.517 223.749 129.657 223.749 129.81C223.749 129.997 223.816 130.137 223.949 130.23C224.089 130.317 224.282 130.36 224.529 130.36H225.989ZM225.069 132.48C225.456 132.48 225.772 132.44 226.019 132.36C226.272 132.28 226.459 132.177 226.579 132.05C226.699 131.923 226.759 131.787 226.759 131.64C226.759 131.46 226.686 131.317 226.539 131.21C226.399 131.103 226.142 131.05 225.769 131.05H224.229C224.016 131.05 223.836 131.103 223.689 131.21C223.542 131.323 223.469 131.477 223.469 131.67C223.469 131.917 223.609 132.113 223.889 132.26C224.176 132.407 224.569 132.48 225.069 132.48ZM224.999 125.9C225.399 125.9 225.752 125.973 226.059 126.12C226.372 126.26 226.616 126.457 226.789 126.71C226.962 126.963 227.049 127.257 227.049 127.59C227.049 127.917 226.962 128.21 226.789 128.47C226.616 128.723 226.372 128.923 226.059 129.07C225.752 129.21 225.399 129.28 224.999 129.28C224.339 129.28 223.832 129.123 223.479 128.81C223.126 128.49 222.949 128.083 222.949 127.59C222.949 127.257 223.036 126.963 223.209 126.71C223.389 126.457 223.632 126.26 223.939 126.12C224.246 125.973 224.599 125.9 224.999 125.9ZM224.999 126.55C224.652 126.55 224.362 126.647 224.129 126.84C223.896 127.027 223.779 127.277 223.779 127.59C223.779 127.897 223.896 128.147 224.129 128.34C224.362 128.533 224.652 128.63 224.999 128.63C225.346 128.63 225.636 128.533 225.869 128.34C226.102 128.147 226.219 127.897 226.219 127.59C226.219 127.277 226.102 127.027 225.869 126.84C225.636 126.647 225.346 126.55 224.999 126.55ZM228.621 131V123.7H229.421V126.75C229.595 126.45 229.825 126.233 230.111 126.1C230.398 125.967 230.711 125.9 231.051 125.9C231.411 125.9 231.738 125.97 232.031 126.11C232.325 126.243 232.558 126.45 232.731 126.73C232.911 127.01 233.001 127.367 233.001 127.8V131H232.201V128.08C232.201 127.527 232.081 127.143 231.841 126.93C231.608 126.71 231.318 126.6 230.971 126.6C230.731 126.6 230.491 126.657 230.251 126.77C230.011 126.883 229.811 127.07 229.651 127.33C229.498 127.583 229.421 127.923 229.421 128.35V131H228.621ZM235.924 124.58V129.62C235.924 129.867 235.994 130.05 236.134 130.17C236.274 130.29 236.454 130.35 236.674 130.35C236.868 130.35 237.034 130.317 237.174 130.25C237.314 130.183 237.441 130.093 237.554 129.98L237.834 130.65C237.681 130.79 237.498 130.9 237.284 130.98C237.078 131.06 236.838 131.1 236.564 131.1C236.311 131.1 236.074 131.057 235.854 130.97C235.634 130.877 235.458 130.733 235.324 130.54C235.198 130.34 235.131 130.08 235.124 129.76V124.8L235.924 124.58ZM237.744 126V126.69H234.124V126H237.744ZM240.734 131.1C240.247 131.1 239.797 130.997 239.384 130.79C238.977 130.583 238.664 130.29 238.444 129.91L239.124 129.42C239.271 129.727 239.484 129.967 239.764 130.14C240.051 130.313 240.394 130.4 240.794 130.4C241.147 130.4 241.424 130.333 241.624 130.2C241.824 130.06 241.924 129.88 241.924 129.66C241.924 129.52 241.877 129.393 241.784 129.28C241.697 129.16 241.527 129.073 241.274 129.02L240.074 128.77C239.587 128.67 239.237 128.503 239.024 128.27C238.817 128.037 238.714 127.747 238.714 127.4C238.714 127.127 238.791 126.877 238.944 126.65C239.104 126.423 239.327 126.243 239.614 126.11C239.907 125.97 240.251 125.9 240.644 125.9C241.137 125.9 241.554 125.997 241.894 126.19C242.234 126.383 242.487 126.657 242.654 127.01L241.984 127.45C241.871 127.157 241.687 126.943 241.434 126.81C241.181 126.67 240.917 126.6 240.644 126.6C240.404 126.6 240.197 126.633 240.024 126.7C239.857 126.767 239.727 126.86 239.634 126.98C239.547 127.093 239.504 127.223 239.504 127.37C239.504 127.517 239.554 127.653 239.654 127.78C239.754 127.9 239.941 127.987 240.214 128.04L241.464 128.3C241.931 128.393 242.257 128.547 242.444 128.76C242.631 128.973 242.724 129.233 242.724 129.54C242.724 129.853 242.641 130.13 242.474 130.37C242.307 130.603 242.074 130.783 241.774 130.91C241.474 131.037 241.127 131.1 240.734 131.1ZM247.616 131V126H248.266L248.376 126.82C248.516 126.513 248.719 126.283 248.986 126.13C249.259 125.977 249.589 125.9 249.976 125.9C250.062 125.9 250.156 125.907 250.256 125.92C250.362 125.933 250.452 125.96 250.526 126L250.386 126.73C250.312 126.703 250.232 126.683 250.146 126.67C250.059 126.657 249.936 126.65 249.776 126.65C249.569 126.65 249.359 126.71 249.146 126.83C248.939 126.95 248.766 127.133 248.626 127.38C248.486 127.62 248.416 127.927 248.416 128.3V131H247.616ZM253.631 131.1C253.158 131.1 252.735 130.997 252.361 130.79C251.995 130.583 251.708 130.287 251.501 129.9C251.295 129.507 251.191 129.04 251.191 128.5C251.191 127.96 251.295 127.497 251.501 127.11C251.708 126.717 251.991 126.417 252.351 126.21C252.711 126.003 253.121 125.9 253.581 125.9C254.048 125.9 254.445 126 254.771 126.2C255.105 126.4 255.358 126.673 255.531 127.02C255.705 127.36 255.791 127.743 255.791 128.17C255.791 128.283 255.788 128.387 255.781 128.48C255.775 128.573 255.765 128.657 255.751 128.73H251.711V128.02H255.401L254.991 128.1C254.991 127.62 254.858 127.25 254.591 126.99C254.331 126.73 253.988 126.6 253.561 126.6C253.235 126.6 252.951 126.677 252.711 126.83C252.478 126.977 252.295 127.193 252.161 127.48C252.035 127.76 251.971 128.1 251.971 128.5C251.971 128.893 252.038 129.233 252.171 129.52C252.305 129.807 252.491 130.027 252.731 130.18C252.978 130.327 253.271 130.4 253.611 130.4C253.978 130.4 254.275 130.33 254.501 130.19C254.735 130.05 254.921 129.86 255.061 129.62L255.691 129.99C255.565 130.217 255.401 130.413 255.201 130.58C255.008 130.747 254.778 130.877 254.511 130.97C254.251 131.057 253.958 131.1 253.631 131.1ZM259.113 131.1C258.626 131.1 258.176 130.997 257.763 130.79C257.356 130.583 257.043 130.29 256.823 129.91L257.503 129.42C257.649 129.727 257.863 129.967 258.143 130.14C258.429 130.313 258.773 130.4 259.173 130.4C259.526 130.4 259.803 130.333 260.003 130.2C260.203 130.06 260.303 129.88 260.303 129.66C260.303 129.52 260.256 129.393 260.163 129.28C260.076 129.16 259.906 129.073 259.653 129.02L258.453 128.77C257.966 128.67 257.616 128.503 257.403 128.27C257.196 128.037 257.093 127.747 257.093 127.4C257.093 127.127 257.169 126.877 257.323 126.65C257.483 126.423 257.706 126.243 257.993 126.11C258.286 125.97 258.629 125.9 259.023 125.9C259.516 125.9 259.933 125.997 260.273 126.19C260.613 126.383 260.866 126.657 261.033 127.01L260.363 127.45C260.249 127.157 260.066 126.943 259.813 126.81C259.559 126.67 259.296 126.6 259.023 126.6C258.783 126.6 258.576 126.633 258.403 126.7C258.236 126.767 258.106 126.86 258.013 126.98C257.926 127.093 257.883 127.223 257.883 127.37C257.883 127.517 257.933 127.653 258.033 127.78C258.133 127.9 258.319 127.987 258.593 128.04L259.843 128.3C260.309 128.393 260.636 128.547 260.823 128.76C261.009 128.973 261.103 129.233 261.103 129.54C261.103 129.853 261.019 130.13 260.853 130.37C260.686 130.603 260.453 130.783 260.153 130.91C259.853 131.037 259.506 131.1 259.113 131.1ZM264.676 131.1C264.203 131.1 263.78 130.997 263.406 130.79C263.04 130.583 262.753 130.287 262.546 129.9C262.34 129.507 262.236 129.04 262.236 128.5C262.236 127.96 262.34 127.497 262.546 127.11C262.753 126.717 263.036 126.417 263.396 126.21C263.756 126.003 264.166 125.9 264.626 125.9C265.093 125.9 265.49 126 265.816 126.2C266.15 126.4 266.403 126.673 266.576 127.02C266.75 127.36 266.836 127.743 266.836 128.17C266.836 128.283 266.833 128.387 266.826 128.48C266.82 128.573 266.81 128.657 266.796 128.73H262.756V128.02H266.446L266.036 128.1C266.036 127.62 265.903 127.25 265.636 126.99C265.376 126.73 265.033 126.6 264.606 126.6C264.28 126.6 263.996 126.677 263.756 126.83C263.523 126.977 263.34 127.193 263.206 127.48C263.08 127.76 263.016 128.1 263.016 128.5C263.016 128.893 263.083 129.233 263.216 129.52C263.35 129.807 263.536 130.027 263.776 130.18C264.023 130.327 264.316 130.4 264.656 130.4C265.023 130.4 265.32 130.33 265.546 130.19C265.78 130.05 265.966 129.86 266.106 129.62L266.736 129.99C266.61 130.217 266.446 130.413 266.246 130.58C266.053 130.747 265.823 130.877 265.556 130.97C265.296 131.057 265.003 131.1 264.676 131.1ZM268.358 131V126H269.008L269.118 126.82C269.258 126.513 269.461 126.283 269.728 126.13C270.001 125.977 270.331 125.9 270.718 125.9C270.804 125.9 270.898 125.907 270.998 125.92C271.104 125.933 271.194 125.96 271.268 126L271.128 126.73C271.054 126.703 270.974 126.683 270.888 126.67C270.801 126.657 270.678 126.65 270.518 126.65C270.311 126.65 270.101 126.71 269.888 126.83C269.681 126.95 269.508 127.133 269.368 127.38C269.228 127.62 269.158 127.927 269.158 128.3V131H268.358ZM275.75 126H276.59L274.51 131H273.71L271.63 126H272.54L274.12 130.19L275.75 126ZM279.725 131.1C279.252 131.1 278.828 130.997 278.455 130.79C278.088 130.583 277.802 130.287 277.595 129.9C277.388 129.507 277.285 129.04 277.285 128.5C277.285 127.96 277.388 127.497 277.595 127.11C277.802 126.717 278.085 126.417 278.445 126.21C278.805 126.003 279.215 125.9 279.675 125.9C280.142 125.9 280.538 126 280.865 126.2C281.198 126.4 281.452 126.673 281.625 127.02C281.798 127.36 281.885 127.743 281.885 128.17C281.885 128.283 281.882 128.387 281.875 128.48C281.868 128.573 281.858 128.657 281.845 128.73H277.805V128.02H281.495L281.085 128.1C281.085 127.62 280.952 127.25 280.685 126.99C280.425 126.73 280.082 126.6 279.655 126.6C279.328 126.6 279.045 126.677 278.805 126.83C278.572 126.977 278.388 127.193 278.255 127.48C278.128 127.76 278.065 128.1 278.065 128.5C278.065 128.893 278.132 129.233 278.265 129.52C278.398 129.807 278.585 130.027 278.825 130.18C279.072 130.327 279.365 130.4 279.705 130.4C280.072 130.4 280.368 130.33 280.595 130.19C280.828 130.05 281.015 129.86 281.155 129.62L281.785 129.99C281.658 130.217 281.495 130.413 281.295 130.58C281.102 130.747 280.872 130.877 280.605 130.97C280.345 131.057 280.052 131.1 279.725 131.1ZM285.357 131.1C284.943 131.1 284.563 130.997 284.217 130.79C283.87 130.583 283.593 130.287 283.387 129.9C283.18 129.507 283.077 129.04 283.077 128.5C283.077 127.947 283.187 127.477 283.407 127.09C283.627 126.703 283.917 126.41 284.277 126.21C284.637 126.003 285.023 125.9 285.437 125.9C285.85 125.9 286.207 126.007 286.507 126.22C286.813 126.433 287.017 126.717 287.117 127.07L287.017 127.14V123.7H287.817V131H287.117L287.047 129.79L287.157 129.73C287.11 130.023 286.997 130.273 286.817 130.48C286.643 130.68 286.427 130.833 286.167 130.94C285.913 131.047 285.643 131.1 285.357 131.1ZM285.437 130.4C285.757 130.4 286.033 130.32 286.267 130.16C286.507 130 286.69 129.773 286.817 129.48C286.95 129.18 287.017 128.83 287.017 128.43C287.017 128.05 286.95 127.723 286.817 127.45C286.69 127.177 286.51 126.967 286.277 126.82C286.05 126.673 285.783 126.6 285.477 126.6C284.97 126.6 284.577 126.773 284.297 127.12C284.017 127.467 283.877 127.927 283.877 128.5C283.877 129.073 284.013 129.533 284.287 129.88C284.56 130.227 284.943 130.4 285.437 130.4ZM290.076 129.8C290.269 129.8 290.426 129.86 290.546 129.98C290.666 130.1 290.726 130.257 290.726 130.45C290.726 130.643 290.666 130.8 290.546 130.92C290.426 131.04 290.269 131.1 290.076 131.1C289.883 131.1 289.726 131.04 289.606 130.92C289.486 130.8 289.426 130.643 289.426 130.45C289.426 130.257 289.486 130.1 289.606 129.98C289.726 129.86 289.883 129.8 290.076 129.8Z" fill="white"/>
<defs>
<clipPath id="clip0_58_364">
<rect width="65" height="23" fill="white" transform="translate(155.5 32)"/>
</clipPath>
</defs>
</svg>
